<?xml version="1.0" encoding="UTF-8"?>
<svg id="_레이어_2" data-name="레이어 2" xmlns="http://www.w3.org/2000/svg" viewBox="0 0 400 144.95">
  <defs>
    <style>
      .cls-1 {
        fill: #fff;
        stroke-width: 0px;
      }
    </style>
  </defs>
  <g>
    <g>
      <path class="cls-1" d="M.41,2.78h32.88v16.03c0,17.83-4.58,28.3-9,35h12.1c3.43-12.1,10.96-21.59,24.53-21.59,15.87,0,26.99,10.14,26.99,30.1v54.96h-34.02v-49.4c0-7.36-3.76-10.79-9.32-10.79-8.18,0-10.14,8.01-10.14,14.72v45.47H.41V2.78Z"/>
      <path class="cls-1" d="M102.48,2.51h34.68v26.17h-34.68V2.51ZM102.8,35h34.18v82.27h-34.18V35Z"/>
      <path class="cls-1" d="M149.58,60.68c0-35.33,25.02-60.68,62.97-60.68,29.6,0,51.52,14.72,58.56,37.62l-36.47,11.45c-3.27-13.25-10.3-20.61-22.74-20.61-14.56,0-23.23,11.45-23.23,32.22,0,18.97,9,31.08,23.23,31.08,11.78,0,19.14-7.2,23.39-20.94l35.98,12.43c-7.52,21.75-29.28,36.8-59.05,36.8-38.27,0-62.64-23.06-62.64-59.37Z"/>
      <path class="cls-1" d="M278.31,60.68c0-35.33,25.02-60.68,62.97-60.68,29.6,0,51.52,14.72,58.56,37.62l-36.47,11.45c-3.27-13.25-10.3-20.61-22.74-20.61-14.56,0-23.23,11.45-23.23,32.22,0,18.97,9,31.08,23.23,31.08,11.78,0,19.14-7.2,23.39-20.94l35.98,12.43c-7.52,21.75-29.28,36.8-59.05,36.8-38.27,0-62.64-23.06-62.64-59.37Z"/>
    </g>
    <g>
      <path class="cls-1" d="M0,127.66h3.67v6.69h7.24v-6.69h3.67v16.9h-3.67v-7.17H3.67v7.17H0v-16.9Z"/>
      <path class="cls-1" d="M17.63,136.16c0-5.05,3.4-8.89,9.03-8.89s9.03,3.84,9.03,8.89-3.33,8.79-9.03,8.79-9.03-3.72-9.03-8.79ZM31.85,136.13c0-3.36-1.88-5.82-5.17-5.82s-5.22,2.46-5.22,5.82,1.91,5.77,5.22,5.77,5.17-2.46,5.17-5.77Z"/>
      <path class="cls-1" d="M38.73,127.66h5.65l7.51,12.56,1.09-.75c-1.18-1.96-1.57-2.87-1.57-5.43v-6.37h3.67v16.9h-4.42l-8.76-14.68-1.11.7c.87,1.62,1.62,3.14,1.62,5.92v8.06h-3.67v-16.9Z"/>
      <path class="cls-1" d="M58.12,136.18c0-5.02,3.84-8.91,8.96-8.91,4.59,0,7.07,2.41,7.97,5.17l-3.45,1.28c-.65-1.86-1.88-3.4-4.52-3.4-2.99,0-5.14,2.17-5.14,5.87s2.29,5.75,5.05,5.75,4.15-1.64,4.37-3.02h-5.46v-3.04h9.05v8.69h-3.31c0-.84.36-2.2,1.13-3.45h-1.5c-.56,1.42-1.79,3.84-5.24,3.84-4.13,0-7.92-3.12-7.92-8.77Z"/>
      <path class="cls-1" d="M77.87,134.08h8.6v3.14h-8.6v-3.14Z"/>
      <path class="cls-1" d="M90.03,127.66h3.67v16.9h-3.67v-16.9Z"/>
      <path class="cls-1" d="M103.48,137.02l-2.05,2.13v5.41h-3.67v-16.9h3.67v2.61c0,2.44-.89,3.5-1.47,4.15l.92.89,6.74-7.65h4.93l-6.54,6.76,7.36,10.14h-4.61l-5.26-7.53Z"/>
      <path class="cls-1" d="M119.18,136.08c0-4.97,3.57-8.81,8.79-8.81,4.06,0,6.91,2.22,7.8,5.22l-3.31,1.28c-.72-2.05-2.12-3.45-4.54-3.45-3.04,0-4.9,2.1-4.9,5.77s1.81,5.8,4.9,5.8c2.41,0,3.91-1.45,4.64-3.48l3.24,1.3c-1.23,3.26-3.79,5.24-7.87,5.24-5.29,0-8.74-3.72-8.74-8.86Z"/>
      <path class="cls-1" d="M148.73,140.6h-6.86l-1.4,3.96h-3.94l6.45-16.9h4.76l6.4,16.9h-4.06l-1.35-3.96ZM147.69,137.56l-1.26-3.67c-.39-1.13-.43-2.39-.46-4.18h-1.3c-.02,1.79-.05,3.04-.46,4.2l-1.28,3.65h4.76Z"/>
      <path class="cls-1" d="M156.31,127.66h6.01l2.78,8.23c.46,1.33.58,3.26.6,5.55h1.3c.02-2.29.19-4.23.65-5.55l2.83-8.23h5.79v16.9h-3.67v-6.71c0-3.04.94-5.75,1.76-7.7l-1.35-.53-5.12,14.95h-3.26l-5.05-14.95-1.35.53c.82,1.96,1.74,4.66,1.74,7.7v6.71h-3.67v-16.9Z"/>
      <path class="cls-1" d="M180.33,127.66h7.58c3.62,0,6.11,2.1,6.11,5.46s-2.49,5.51-6.09,5.51h-3.94v5.94h-3.67v-16.9ZM187.26,135.58c1.74,0,2.95-.89,2.95-2.46s-1.21-2.41-2.95-2.41h-3.26v4.88h3.26Z"/>
      <path class="cls-1" d="M196.44,137.97v-10.31h3.67v9.73c0,2.83,1.3,4.42,3.91,4.42,2.75,0,3.91-1.71,3.91-4.42v-9.73h3.67v10.31c0,4.42-3.19,6.98-7.58,6.98-4.64,0-7.58-2.68-7.58-6.98Z"/>
      <path class="cls-1" d="M214.11,139.73l3.45-1.16c.34,1.67,1.62,3.45,4.27,3.45,2.39,0,3.31-.97,3.31-2.17,0-1.04-.72-1.79-2.75-2.08l-2.1-.29c-3.26-.46-5.34-1.93-5.34-5.07,0-2.7,2.29-5.14,6.69-5.14s6.42,2.17,7.15,4.52l-3.38,1.18c-.51-1.57-1.62-2.78-3.77-2.78s-2.87,1.04-2.87,2.08.8,1.62,2.17,1.81l2.1.29c3.5.48,5.92,2.13,5.92,5.24,0,2.9-2.17,5.34-7.12,5.34s-7.07-2.44-7.73-5.22Z"/>
      <path class="cls-1" d="M236.64,136.08c0-4.97,3.57-8.81,8.79-8.81,4.06,0,6.91,2.22,7.8,5.22l-3.31,1.28c-.72-2.05-2.12-3.45-4.54-3.45-3.04,0-4.9,2.1-4.9,5.77s1.81,5.8,4.9,5.8c2.41,0,3.91-1.45,4.64-3.48l3.24,1.3c-1.23,3.26-3.79,5.24-7.87,5.24-5.29,0-8.74-3.72-8.74-8.86Z"/>
      <path class="cls-1" d="M254.89,136.16c0-5.05,3.4-8.89,9.03-8.89s9.03,3.84,9.03,8.89-3.33,8.79-9.03,8.79-9.03-3.72-9.03-8.79ZM269.11,136.13c0-3.36-1.88-5.82-5.17-5.82s-5.22,2.46-5.22,5.82,1.91,5.77,5.22,5.77,5.17-2.46,5.17-5.77Z"/>
      <path class="cls-1" d="M275.99,127.66h5.65l7.51,12.56,1.09-.75c-1.18-1.96-1.57-2.87-1.57-5.43v-6.37h3.67v16.9h-4.42l-8.76-14.68-1.11.7c.87,1.62,1.62,3.14,1.62,5.92v8.06h-3.67v-16.9Z"/>
      <path class="cls-1" d="M296.4,127.66h5.65l7.51,12.56,1.09-.75c-1.18-1.96-1.57-2.87-1.57-5.43v-6.37h3.67v16.9h-4.42l-8.76-14.68-1.11.7c.87,1.62,1.62,3.14,1.62,5.92v8.06h-3.67v-16.9Z"/>
      <path class="cls-1" d="M316.8,127.66h12.77v3.04h-9.1v3.67h6.88v2.99h-6.88v4.15h9.1v3.04h-12.77v-16.9Z"/>
      <path class="cls-1" d="M331.24,136.08c0-4.97,3.57-8.81,8.79-8.81,4.06,0,6.91,2.22,7.8,5.22l-3.31,1.28c-.72-2.05-2.12-3.45-4.54-3.45-3.04,0-4.9,2.1-4.9,5.77s1.81,5.8,4.9,5.8c2.41,0,3.91-1.45,4.64-3.48l3.24,1.3c-1.23,3.26-3.79,5.24-7.87,5.24-5.29,0-8.74-3.72-8.74-8.86Z"/>
      <path class="cls-1" d="M354.37,130.7h-5.79v-3.04h15.26v3.04h-5.79v13.86h-3.67v-13.86Z"/>
      <path class="cls-1" d="M364.48,136.16c0-5.05,3.4-8.89,9.03-8.89s9.03,3.84,9.03,8.89-3.33,8.79-9.03,8.79-9.03-3.72-9.03-8.79ZM378.7,136.13c0-3.36-1.88-5.82-5.17-5.82s-5.22,2.46-5.22,5.82,1.91,5.77,5.22,5.77,5.17-2.46,5.17-5.77Z"/>
      <path class="cls-1" d="M385.58,127.66h8.35c3.62,0,5.77,1.76,5.77,4.44,0,3.6-3.16,3.86-5.22,3.96v1.26c2.78.05,4.35.56,4.81,3.19l.7,4.06h-3.91l-.51-3.74c-.27-1.96-1.16-2.68-3.26-2.68h-3.07v6.42h-3.67v-16.9ZM393.24,135.17c1.52,0,2.66-.7,2.66-2.25s-1.14-2.22-2.66-2.22h-3.98v4.47h3.98Z"/>
    </g>
  </g>
</svg>