<?xml version="1.0" encoding="UTF-8"?>
<svg id="_레이어_2" data-name="레이어 2" xmlns="http://www.w3.org/2000/svg" viewBox="0 0 283.46 283.46">
  <defs>
    <style>
      .cls-1 {
        fill: rgb(255,128,128);
        stroke-width: 0px;
      }
    </style>
  </defs>
  <g id="_레이어_1-2" data-name="레이어 1">
    <g>
      <polygon class="cls-1" points="130.48 135.67 130.48 129.75 114.3 129.75 114.3 131.92 126.97 131.92 126.97 135.67 130.48 135.67"/>
      <polygon class="cls-1" points="150.42 135.67 150.42 119.67 147.16 119.67 147.16 125.19 145.64 125.19 145.64 119.67 142.38 119.67 142.38 132.61 136.54 132.61 136.54 121.72 140.98 121.72 140.98 119.67 133.24 119.67 133.24 134.69 142.38 134.69 142.38 135.67 145.64 135.67 145.64 127.36 147.16 127.36 147.16 135.67 150.42 135.67"/>
      <path class="cls-1" d="M118.93,128.59c3.26,0,5.82-1.88,5.82-4.64s-2.57-4.64-5.82-4.64-5.82,1.87-5.82,4.64,2.55,4.64,5.82,4.64ZM118.93,121.25c1.3,0,2.35,1.07,2.35,2.68s-.99,2.72-2.35,2.72-2.35-1.11-2.35-2.72,1.02-2.68,2.35-2.68Z"/>
      <polygon class="cls-1" points="169.36 135.67 169.36 130.15 153.18 130.15 153.18 132.32 165.89 132.32 165.89 135.67 169.36 135.67"/>
      <path class="cls-1" d="M158.27,129.14c3.24,0,5.43-1.84,5.43-4.24,0-1.02-.41-1.95-1.13-2.66h1.97v-1.97h-4.54v-1.38h-3.47v1.38h-4.54v1.97h1.97c-.71.71-1.12,1.64-1.12,2.66,0,2.41,2.19,4.24,5.43,4.24ZM158.27,122.17c1.18,0,2.13.99,2.13,2.51s-.89,2.53-2.13,2.53-2.13-1.03-2.13-2.53.93-2.51,2.13-2.51Z"/>
      <polygon class="cls-1" points="188.9 119.67 172.52 119.67 172.52 121.84 185.51 121.84 185.51 133.5 183.22 133.5 183.22 124.7 180.06 124.7 180.06 133.5 178.09 133.5 178.09 124.7 174.93 124.7 174.93 133.5 171.93 133.5 171.93 135.67 190.48 135.67 190.48 133.5 188.9 133.5 188.9 119.67"/>
      <polygon class="cls-1" points="169.36 126.87 171.53 126.87 171.53 124.7 169.36 124.7 169.36 119.67 165.89 119.67 165.89 129.36 169.36 129.36 169.36 126.87"/>
      <rect class="cls-1" x="126.97" y="119.67" width="3.51" height="9.3"/>
      <path class="cls-1" d="M93.97,132.28c0,2.23,3.2,3.79,8.29,3.79s8.29-1.56,8.29-3.79c0-1.05-.71-1.88-2.01-2.45h3v-2.07h-7.5v-.81c3.79-.27,5.92-1.44,5.92-2.94,0-.73-.47-1.32-1.38-1.78h2.76v-1.97h-7.3v-1.38h-3.55v1.38h-7.3v1.97h2.76c-.91.45-1.38,1.05-1.38,1.78,0,1.5,2.13,2.67,5.92,2.94v.81h-7.5v2.07h3c-1.3.57-2.01,1.4-2.01,2.45ZM98.84,124.68c-.51-.24-.73-.57-.73-.95s.22-.71.73-.95c.75-.35,2.05-.55,3.42-.55s2.66.2,3.41.55c.51.24.73.57.73.95s-.22.71-.73.95c-.75.38-2.03.55-3.41.55s-2.67-.18-3.42-.55ZM98.82,130.46c.83-.36,2.09-.55,3.43-.55s2.6.2,3.43.55c.87.38,1.3.91,1.3,1.54s-.42,1.16-1.3,1.54c-.83.36-2.09.55-3.43.55s-2.61-.2-3.43-.55c-.89-.38-1.3-.91-1.3-1.54s.43-1.16,1.3-1.54Z"/>
      <path class="cls-1" d="M145.83,147.19l-4.1,3.44-4.07-3.42-.02-.02h-30.75l-13.01,14.23-.02.02v43.21h34.9l4.31,3.61.02.02h17.28l4.33-3.62h34.62v-43.21l-13.04-14.25h-30.46ZM142.37,151.77l3.93-3.29h28.74v41.04h-29.21l-3.46,2.89v-40.63ZM108.13,148.48h29.03l3.92,3.29v40.63l-3.43-2.87-.02-.02h-29.5v-41.04ZM107.77,190.81h29.4l4.52,3.77.04.04,4.57-3.81h29.11l2.04,2.17h-28.37l-4.33,3.62h-6.03l-4.31-3.61-.02-.02h-28.65l2.04-2.17ZM104.89,151.28l1.96-2.14v40.77l-1.96,2.09v-40.71ZM101.64,154.83l1.96-2.15v40.68l-1.96,2.09v-40.62ZM98.39,158.39l1.96-2.15v40.59l-1.96,2.09v-40.53ZM95.14,161.94l1.96-2.15v40.49l-1.96,2.09v-40.44ZM186.08,159.8l1.96,2.14v40.44l-1.96-2.09v-40.49ZM187.2,203.37h-32.96l-4.33,3.62h-16.35l-4.31-3.61-.02-.02h-33.24l2.04-2.18h32.45l4.31,3.61.02.02h13.85l4.33-3.62h32.17l2.04,2.18ZM182.83,156.25l1.96,2.14v40.53l-1.96-2.09v-40.58ZM183.95,199.9h-31.43l-4.33,3.62h-12.91l-4.31-3.61-.02-.02h-31.71l2.04-2.17h30.92l4.31,3.61.02.02h10.4l4.33-3.62h30.64l2.04,2.17ZM179.58,152.7l1.96,2.14v40.61l-1.96-2.09v-40.66ZM180.7,196.44h-29.9l-4.33,3.62h-9.47l-4.31-3.61-.02-.02h-30.18l2.04-2.17h29.39l4.31,3.6.02.02h6.97l4.33-3.62h29.11l2.04,2.17ZM176.33,149.15l1.96,2.14v40.7l-1.96-2.09v-40.75Z"/>
      <polygon class="cls-1" points="123.98 101.42 112.88 101.42 112.88 81.45 157.27 81.45 157.27 85.89 159.48 85.89 159.48 79.23 110.67 79.23 110.67 103.64 123.98 103.64 123.98 101.42"/>
      <rect class="cls-1" x="123.98" y="85.89" width="33.29" height="15.53"/>
      <polygon class="cls-1" points="159.48 103.64 123.98 103.64 123.98 110.3 172.8 110.3 172.8 85.89 159.48 85.89 159.48 103.64"/>
      <path class="cls-1" d="M227.38,123.39c-.54-1.65-1.53-2.99-2.52-4.19-5.07-6.91-8.55-12.14-10.34-15.55-2.5-4.76-3.23-8.16-4.83-15.61l-.04-.19c-.44-2.02-.93-4.32-1.54-7.02-1.11-4.89-3.79-8.41-7.76-10.18-9.58-5.05-18.72-11.18-23.63-14.9-4.34-3.29-11.62-11.28-11.69-11.35l-.12-.09c-.16-.08-1.68-.76-4.62-.57-2.95.19-5.96,2.45-7.33,5.5-1.37,3.05.17,6.44,1.83,7.43.13.08.3.18.51.32-1.89.93-7.49,3.4-13.57,3.4s-11.68-2.47-13.57-3.4c.22-.14.38-.24.51-.32,1.66-1,3.2-4.39,1.83-7.43-1.37-3.06-4.39-5.32-7.33-5.5-2.93-.19-4.46.49-4.65.59l-.08.06-.02.02c-.07.08-7.39,8.1-11.69,11.35-4.9,3.72-14.03,9.85-23.6,14.89-3.99,1.78-6.68,5.3-7.79,10.19-.63,2.78-1.15,5.2-1.57,7.14l-.02.07c-1.6,7.45-2.34,10.86-4.83,15.61-2.55,4.85-8.06,12.52-10.3,15.58-1.18,1.21-2.07,2.64-2.56,4.16-2.15,6.6,2.86,11.22,4.92,12.16,2.3,1.04,8.16,1.81,10.6-2.69.53-.97.99-2.36,1.03-2.54.94-4.37,4.08-8.22,4.9-9.17,4.48,3.33,7.49,11.43,8.07,21.7.52,9.18-2.76,15.37-5.65,18.98-.81-.87-2.58-3.05-3.84-6.51-.49-1.63-2.01-3.26-3.79-4.07-1.31-.6-3.44-1.05-6.1.17-1.97.91-3.42,2.5-4.18,4.59-.87,2.4-.73,5.23.37,7.56.19.39.41.79.68,1.17l-.04.02.22.33c.05.07,4.69,7.13,7.04,14.07.85,2.5,1.61,5.35,2.43,8.4,1.57,5.85,3.65,13.16,5.93,17.78,6.09,12.38,14.55,20.54,27.43,26.48,15.78,7.27,31.54,7.27,36.72,7.27,12.46,0,24.09-2.45,34.56-7.27,12.78-5.89,21.58-14.42,27.7-26.85,2.21-4.49,5.67-17.45,5.67-17.45.8-3.01,1.57-5.85,2.41-8.35,2.44-7.21,6.93-13.99,6.97-14.05.42-.6.71-1.09.92-1.54,1.1-2.33,1.24-5.16.37-7.56-.76-2.1-2.21-3.68-4.18-4.59-2.66-1.22-4.79-.77-6.1-.17-1.7.77-3.08,2.29-3.58,3.95-1.24,3.41-3.17,5.7-4.05,6.63-2-2.51-6.34-9.16-5.96-19.32.38-10.23,3.28-17.61,8.37-21.37,1.04,1.18,3.43,4.26,4.98,9.09.14.86.46,1.74.94,2.62,2.44,4.5,8.3,3.73,10.61,2.69,2.06-.94,7.07-5.56,4.92-12.16ZM154.43,49.91c1.13-2.53,3.59-4.4,5.96-4.56.31-.02.61-.03.88-.03,1.55,0,2.5.28,2.82.4.86.94,7.52,8.18,11.66,11.32,4.04,3.06,11.11,7.89,19.01,12.39-3.93-.08-7.21,1.41-8.76,2.98-3.78,3.83-3.98,7.61-3.66,10.29-3.39-4.93-8.38-11.62-13.55-16.43-9.26-8.63-12.2-10.39-13.17-10.97-1.13-.68-2.18-3.18-1.19-5.39ZM192.04,85.46s-1.17-2.03-.26-3.89c.96-1.96,2.86-2.46,4.33-2.1,1.68.42,4.91,2.76,4.19,7.33-.74,4.65-5.7,5.26-8.52,4.89-1.89-.25-4.67-1.46-6.29-4.05-.18-.32-.49-.92-.52-.98-.18-.41-.33-.81-.44-1.23-.46-1.72-.92-3.99-.45-6.35.96.79,4.12,3.51,6.62,7.24l.08.11,1.34-.86-.07-.12ZM190.33,80.87c-.25.52-.42,1.06-.5,1.62-2.11-2.52-4.17-4.23-5.28-5.08.54-1.39,1.39-2.65,2.59-3.86.17-.17.36-.33.55-.49,1.97,2.06,4.36,3.76,6.11,4.87-1.52.39-2.75,1.42-3.49,2.93ZM107.72,57.04c4.15-3.14,10.8-10.38,11.66-11.32.45-.17,1.66-.5,3.7-.37,2.37.15,4.83,2.02,5.96,4.55.99,2.21-.06,4.71-1.19,5.39-.97.58-3.91,2.34-13.17,10.97-5.21,4.85-10.19,11.61-13.57,16.6.35-2.74.18-6.59-3.64-10.46-1.36-1.38-4.39-2.98-8.46-2.98-.1,0-.2,0-.3,0,7.9-4.51,14.97-9.33,19.01-12.39ZM91.69,81.58c.91,1.87-.21,3.81-.26,3.89l-.07.12,1.34.86.08-.11c2.51-3.73,5.66-6.45,6.62-7.24.46,2.37,0,4.63-.45,6.35-1,3.78-4.46,5.89-7.25,6.26-2.82.37-7.78-.24-8.52-4.89-.72-4.55,2.49-6.89,4.17-7.33h.02c.29-.08.6-.11.91-.11.7,0,2.45.22,3.42,2.21ZM89.65,77.93c1.76-1.11,4.14-2.81,6.11-4.87.2.16.39.32.55.49,1.2,1.22,2.05,2.48,2.59,3.86-.93.71-3.09,2.48-5.27,5.08-.08-.56-.24-1.11-.5-1.63-.74-1.51-1.97-2.54-3.48-2.93ZM70.95,129.93l-.04.24c-.13.62-.37,1.26-.72,1.91-1.9,3.51-6.65,2.84-8.52,1.99-1.71-.78-5.86-4.63-4.05-10.18.32-.99.84-1.93,1.52-2.79.25-.31.58-.69.68-.77l.03-.02c1.03-1.03,2.31-1.86,3.71-2.38,1.25-.47,2.58-.71,3.96-.71.45,0,.92.03,1.39.08-.54,1.52-2.29,5.52-4.8,8.42l-.1.11,1.29,1.01.09-.11s1.38-1.75,3.11-1.15c1.03.35,1.88,1.16,2.28,2.16.26.66.32,1.39.19,2.19ZM72.12,126.81c-.61-1.28-1.75-2.3-3.11-2.76-.43-.15-.87-.22-1.3-.22-.05,0-.09,0-.14,0,1.6-2.48,2.51-4.92,2.94-6.25,1.48.35,2.93.95,4.31,1.78.46.27.91.55,1.37.85-.94,1.09-2.61,3.29-4.07,6.6ZM76.03,159c1.19,2.17,2.33,3.5,2.85,4.06-1.58,1.69-3.3,2.95-4.87,3.57-.28.11-.57.2-.89.29-.45-1.84-1.4-3.58-2.17-4.79.66.05,1.29-.02,1.97-.22,1.36-.41,2.55-1.53,3.11-2.9ZM63.87,162.88c-.92-1.95-1.04-4.31-.31-6.32.61-1.68,1.76-2.95,3.34-3.68.9-.41,1.79-.62,2.65-.62.74,0,1.45.15,2.11.45,1.36.62,2.56,1.89,2.92,3.08.72,2.44-.8,4.13-2.12,4.55-1.6.51-2.75.03-3.98-1.66l-.08-.11-1.33.97.1.12c.14.17,3.46,4.07,4.37,7.52-3.2.24-6.34-1.52-7.66-4.31ZM209.1,155.7c.37-1.25,1.41-2.39,2.71-2.98,1.01-.46,2.66-.8,4.76.17,1.57.72,2.73,2,3.34,3.68.73,2,.61,4.36-.31,6.32-1.32,2.8-4.46,4.55-7.66,4.31.92-3.48,4.34-7.48,4.37-7.52l.1-.12-1.34-.97-.08.11c-1.35,1.86-2.36,1.95-3.99,1.46-1.43-.43-2.58-2.14-1.9-4.46ZM207.63,158.91c.52,1.37,1.59,2.4,2.9,2.8.8.24,1.45.36,2.01.36-.79,1.23-1.75,2.99-2.21,4.84-.32-.09-.62-.18-.89-.29-1.56-.62-3.29-1.88-4.87-3.57.69-.7,1.9-2.09,3.05-4.15ZM195.94,142.45c-.42,14.02,7.3,23.45,12.91,25.67,2.55,1.01,5.35.93,7.75-.2-1.58,2.78-3.64,6.77-4.98,10.72-.86,2.55-1.63,5.41-2.44,8.45l-.23.86c-1.42,5.32-3.19,11.95-5.33,16.31-5.95,12.09-14.5,20.38-26.92,26.1-10.26,4.73-21.66,7.12-33.89,7.12-5.09,0-20.59,0-36.05-7.12-12.52-5.77-20.74-13.7-26.65-25.72-2.22-4.5-4.28-11.72-5.82-17.51l-.02-.06c-.81-3.03-1.57-5.88-2.44-8.42-1.34-3.94-3.4-7.94-4.98-10.72,2.4,1.13,5.19,1.2,7.75.19,5.22-2.06,13.25-10.77,12.61-25.34-.55-12.55-4.23-20.43-11.56-24.81-4.18-2.5-8.68-3.05-12.67-1.56-.15.06-.3.12-.46.18,2.61-3.68,5.97-8.63,7.84-12.19,2.6-4.95,3.35-8.42,4.98-16.03v-.05c.45-2.06.95-4.38,1.58-7.14.9-3.98,2.98-6.96,6.02-8.64h0s.86-.44.86-.44c.5-.22,1.03-.42,1.56-.57,2.9-.83,6.39-.56,8.96.66-3.46,3.48-8.31,5.95-8.51,6.06-2.53,1.28-4.97,4.26-4.26,8.79.93,5.87,6.93,6.68,10.33,6.24,2.24-.3,5.54-1.74,7.48-4.84h0c.08-.13,8.06-13.23,16.4-21.01,4.7-4.38,8.36-7.54,10.89-9.41,1.04.58,7.5,3.97,15.07,3.97s14.02-3.4,15.07-3.97c2.53,1.87,6.19,5.04,10.88,9.41,6.46,6.02,12.66,15.12,15.78,20.01,2.14,3.45,4.87,5.41,8.1,5.84,3.4.44,9.4-.37,10.33-6.24.72-4.53-1.74-7.48-4.29-8.73-.05-.03-4.97-2.59-8.48-6.12,2.57-1.23,6.06-1.49,8.96-.66.55.16,1.32.46,1.56.57.24.11.35.17.49.24l.04.02c3.23,1.64,5.43,4.69,6.36,8.82.65,2.86,1.19,5.37,1.58,7.2,1.64,7.6,2.38,11.07,4.98,16.02,1.87,3.55,5.23,8.51,7.84,12.19-.15-.07-.31-.13-.46-.18-3.98-1.49-8.48-.94-12.67,1.56-7.73,4.61-11.51,12.39-11.87,24.48ZM211.34,126.81c-1.45-3.3-3.12-5.51-4.07-6.6.44-.29.9-.58,1.37-.85,1.38-.83,2.83-1.42,4.31-1.78.43,1.33,1.34,3.77,2.94,6.25-.48-.02-.97.06-1.44.22-1.36.46-2.5,1.48-3.11,2.76ZM221.8,134.08c-1.87.85-6.61,1.52-8.52-1.99-.32-.6-.6-1.35-.74-2.02-.14-.85-.08-1.7.16-2.33.39-1,1.24-1.81,2.28-2.16.27-.09.54-.14.81-.14,1.27,0,2.26,1.24,2.3,1.29l.09.11,1.29-1.01-.1-.11c-2.51-2.91-4.25-6.91-4.8-8.42,1.87-.21,3.67,0,5.34.63,1.4.52,2.68,1.34,3.7,2.37,0,0,.37.39.71.8.69.86,1.2,1.8,1.52,2.79,1.81,5.55-2.34,9.41-4.05,10.18Z"/>
      <path class="cls-1" d="M158.53,166.92c1.77-.17,4.16-.42,6.46-.67.08.45.14.87.17,1.26l1.84-.55c-.22-1.93-1.03-4.78-2.09-7.01l-1.68.53c.54,1.2,1.03,2.65,1.38,4-1.12.09-2.26.2-3.32.28.87-3.22,1.76-7.54,2.27-11.21l-2.15-.28c-.34,3.64-1.14,8.28-1.99,11.65l-1.15.08.25,1.92Z"/>
      <path class="cls-1" d="M153.28,157.02c-.17,1.73-.5,3.88-.79,5.28l1.85.31.12-.67h2.23c-.19,2.27-.44,3.27-.73,3.57-.19.16-.33.19-.59.19-.34,0-1.07-.01-1.81-.08.33.51.55,1.26.58,1.84.81.01,1.6.03,2.07-.03.56-.08.93-.23,1.31-.64.53-.59.81-2.15,1.09-5.76.03-.25.05-.75.05-.75h-3.92c.08-.5.16-1.01.22-1.53h3.66v-5.23h-5.76v1.73h3.97v1.77h-3.53Z"/>
      <path class="cls-1" d="M156.46,175.01h6.35v-1.4c.73.84,1.6,1.6,2.52,2.18.33-.44,1.01-1.11,1.45-1.42-1.57-.79-3.05-2.24-3.8-3.67h-5.51v1.71h4.41c.25.36.53.73.83,1.07h-6.24v1.53Z"/>
      <path class="cls-1" d="M153.56,181.14c.45-.28.92-.61,1.37-.98v2.46h-2.23v1.67h13.78v-1.67h-2.07v-2.52c.39.3.81.56,1.23.79.31-.45.98-1.14,1.42-1.46-1.67-.7-3.19-2.02-3.92-3.41h-5.98v1.12l-1.53-.48c-.72,1.26-2.04,2.41-3.44,3.1.4.33,1.07,1.04,1.37,1.39ZM157.62,182.62h-1.06v-1.87h1.06v1.87ZM160.16,182.62h-1.09v-1.87h1.09v1.87ZM162.68,182.62h-1.09v-1.87h1.09v1.87ZM157.16,177.66v.09h4.9c.41.55.87,1.07,1.4,1.57h-7.63c.5-.51.95-1.07,1.32-1.67Z"/>
      <path class="cls-1" d="M153.87,175.94c1.34-.95,2.74-2.51,3.56-4.11l-1.87-.55c-.67,1.29-1.87,2.51-3.14,3.29.42.31,1.14,1.01,1.45,1.37Z"/>
      <path class="cls-1" d="M124.95,154.17c.02-.33.03-.64.05-.89h-2.12c-.11,2.05.11,9.12-6.1,12.57.62.44,1.23,1,1.56,1.48,3.29-2.01,4.92-5.01,5.76-7.82.87,2.86,2.61,6.07,6.13,7.82.3-.5.86-1.14,1.43-1.57-5.81-2.73-6.59-9.44-6.71-11.59Z"/>
      <path class="cls-1" d="M124.69,176.44h4.23v6.09c0,.25-.09.34-.37.34-.2.02-.78.02-1.39,0v-5.53h-6v6.74h1.68v-.79h3.86c.19.48.36,1.06.4,1.45,1.34,0,2.24-.05,2.85-.36.62-.3.83-.84.83-1.84v-11.76h-6.1v5.65ZM125.42,181.94h-2.57v-.97h2.57v.97ZM125.42,179.65h-2.57v-.93h2.57v.93ZM126.45,172.13h2.48v.82h-2.48v-.82ZM126.45,174.2h2.48v.92h-2.48v-.92Z"/>
      <path class="cls-1" d="M123.61,170.79h-5.96v13.95h1.84v-8.33h4.13v-5.62ZM121.88,175.09h-2.4v-.89h2.4v.89ZM121.88,172.95h-2.4v-.83h2.4v.83Z"/>
      <path class="cls-1" d="M248.07,141.53c0-58.63-47.7-106.33-106.33-106.33s-106.34,47.7-106.34,106.33,47.7,106.34,106.34,106.34,106.33-47.7,106.33-106.34ZM141.73,246.2c-57.71,0-104.67-46.95-104.67-104.67s46.95-104.66,104.67-104.66,104.66,46.95,104.66,104.66-46.95,104.67-104.66,104.67Z"/>
      <path class="cls-1" d="M141.73,0C63.58,0,0,63.58,0,141.73s63.58,141.73,141.73,141.73,141.73-63.58,141.73-141.73S219.88,0,141.73,0ZM141.73,281.78C64.5,281.78,1.68,218.96,1.68,141.73S64.5,1.68,141.73,1.68s140.05,62.83,140.05,140.06-62.83,140.05-140.05,140.05Z"/>
      <polygon class="cls-1" points="34.66 110.85 25.45 107.7 28.78 97.96 37.99 101.11 39.2 97.55 17.94 90.3 16.73 93.85 25.57 96.87 22.24 106.61 13.41 103.59 12.21 107.09 33.47 114.35 34.66 110.85"/>
      <path class="cls-1" d="M30.4,89.54c1.98,1.15,4.24,1.84,6.48,1.84,3.33,0,6.62-1.54,8.86-5.39,1.64-2.82,2.01-5.77,1.09-8.54-.86-2.6-2.88-4.92-5.67-6.54-3.1-1.8-6.22-2.33-9.02-1.52-2.58.74-4.76,2.53-6.31,5.18-3.15,5.42-1.27,11.58,4.57,14.98ZM28.78,76.1c1.06-1.82,2.63-2.94,4.54-3.23.34-.05.69-.08,1.05-.08,1.5,0,3.1.46,4.62,1.35,3.53,2.05,6.4,5.81,3.85,10.21-1.11,1.92-2.7,3.01-4.72,3.24-1.8.21-3.91-.32-5.93-1.5-2.06-1.19-3.47-2.76-4.08-4.53-.61-1.77-.38-3.66.67-5.45Z"/>
      <polygon class="cls-1" points="55.03 71.77 43.14 61.28 61.99 63.88 64.28 61.28 47.44 46.42 45.03 49.14 56.95 59.65 38.03 57.08 35.7 59.73 52.54 74.59 55.03 71.77"/>
      <path class="cls-1" d="M66.2,55.39c.68.16,1.36.23,2.03.23,2.11,0,4.19-.75,6.11-2.23,2.17-1.67,3.55-3.85,3.84-6l1.4,1.63,2.5-1.92-7.32-9.54-8.08,6.2,2.03,2.64,5.4-4.14c1.71,3.07,1.15,6.18-1.5,8.22-3.95,3.03-7.97.68-10.21-2.24-1.46-1.91-2.27-3.84-2.33-5.58-.07-1.98.81-3.68,2.62-5.07,2.55-1.96,5.29-1.91,7.51.12l.28.26,2.86-2.49-.34-.32c-3.57-3.39-8.13-3.55-12.2-.43-5.32,4.08-5.91,10.15-1.54,15.84,1.96,2.55,4.36,4.22,6.94,4.81Z"/>
      <rect class="cls-1" x="80.54" y="23.11" width="3.73" height="22.46" transform="translate(-6.29 44.52) rotate(-29.17)"/>
      <polygon class="cls-1" points="97.09 39.45 94.36 32.53 96.12 28.65 107.35 35.42 111.96 33.61 97.65 25.26 103.08 12.95 98.39 14.8 92.67 28.2 88.87 18.54 85.43 19.9 93.65 40.81 97.09 39.45"/>
      <path class="cls-1" d="M121.88,28.68c1.4,1.65,3.48,2.49,6.22,2.49.54,0,1.11-.03,1.7-.1,3.79-.42,6.32-2.32,7.14-5.34.4-1.46.25-3.32.07-4.94l-1.47-13.23-3.77.42,1.42,12.84c.35,3.16.32,6.28-4.12,6.77-4.38.49-5.06-2.24-5.43-5.59l-1.44-12.96-3.77.42,1.39,12.5c.24,2.2.55,4.93,2.05,6.72Z"/>
      <polygon class="cls-1" points="146.84 14.3 156.06 30.94 159.52 31.22 161.31 8.83 157.69 8.53 156.42 24.37 147.14 7.69 143.62 7.41 141.82 29.8 145.57 30.1 146.84 14.3"/>
      <rect class="cls-1" x="157.12" y="19.98" width="22.46" height="3.73" transform="translate(110.33 181.39) rotate(-77.41)"/>
      <polygon class="cls-1" points="181.17 37.4 196.79 19.18 193.03 17.81 181.69 31.5 181.65 13.66 177.83 12.26 178.11 36.28 181.17 37.4"/>
      <polygon class="cls-1" points="204.3 49.14 206.01 46.17 195.3 40.03 198.45 34.53 208.26 40.14 209.96 37.17 200.16 31.56 203.01 26.58 213.39 32.53 215.16 29.46 201.53 21.65 190.36 41.15 204.3 49.14"/>
      <path class="cls-1" d="M209.9,53.54l5.8-6.84,3.13,2.65c.48.4,1.75,1.48,2.1,2.21.65,1.39-.19,2.65-1.08,3.97-.14.21-.28.42-.41.63-.84,1.31-1.27,2.17-1.65,3.76l-.06.25,3.7,3.13-.09-1.03c-.13-1.5.83-3.08,1.76-4.6,1.15-1.88,2.34-3.82,1.48-5.7,1.98.5,4.07-.22,5.6-2.03,1.06-1.25,1.61-2.51,1.69-3.83.19-2.82-1.52-4.68-3.4-6.27l-6.89-5.84-14.52,17.14,2.82,2.39ZM222.24,38.99l3.09,2.61c2.21,1.87,3.88,3.62,1.88,5.97-1.56,1.85-3.28,1.8-5.58-.15l-3.81-3.23,4.42-5.21Z"/>
      <path class="cls-1" d="M235.04,70.18c-.78.64-1.66.82-2.63.53-.85-.26-1.71-.87-2.41-1.73-2.14-2.59-2.08-4.75.18-7.02l.31-.31-2.82-2.61-.29.28c-3.46,3.39-3.51,7.53-.12,11.64,1.38,1.68,3.08,2.86,4.77,3.33.56.16,1.12.23,1.67.23,1.4,0,2.74-.5,3.95-1.5,3.88-3.19,2.22-7.07.76-10.5l-.34-.79c-1.22-2.89-1.43-3.54-.22-4.54.72-.59,1.51-.76,2.35-.5.74.23,1.5.79,2.16,1.59,1.75,2.13,1.72,3.98-.09,5.84l-.3.31,2.67,2.55.29-.27c.96-.87,1.6-1.89,2.04-3.19.78-2.34.09-4.78-2.13-7.48-2.19-2.66-6.02-4.71-9.61-1.75-2.36,1.95-2.77,4.31-1.31,7.67l1.11,2.57c.85,1.96,1.82,4.17.02,5.66Z"/>
      <rect class="cls-1" x="233.85" y="74.08" width="22.47" height="3.73" transform="translate(-2.46 143.45) rotate(-32.47)"/>
      <polygon class="cls-1" points="258.05 83.07 240.99 91.38 242.64 94.76 259.7 86.45 262.52 92.23 265.65 90.7 258.34 75.71 255.21 77.24 258.05 83.07"/>
      <polygon class="cls-1" points="247.45 106.86 248.55 110.39 257.17 107.7 272.55 111.86 271.22 107.62 260.34 104.85 267.71 96.38 266.4 92.18 256.07 104.17 247.45 106.86"/>
      <path class="cls-1" d="M15.83,144.02c.04,2.29.28,4.88,2.74,6.58,1.14.78,2.54,1.19,4.04,1.19.05,0,.09,0,.13,0,2.07-.03,3.79-.72,4.97-1.97,1.21-1.29,1.83-3.17,1.79-5.45l-.14-8.77-22.26.36.06,3.73,8.58-.14.07,4.46ZM26.01,139.4l.05,3c.06,3.35-.15,5.55-3.43,5.61-.83.02-2-.19-2.76-1.23-.61-.85-.63-2.54-.64-3.18l-.07-4.09,6.85-.11Z"/>
      <path class="cls-1" d="M20.86,169.78c1.2,1.63,3.26,2.38,5.57,1.96,1.6-.29,2.81-.91,3.71-1.88,1.92-2.05,1.78-4.55,1.34-6.95l-1.62-8.8-21.9,4.02.66,3.61,8.74-1.6.73,4c.11.61.41,2.23.22,3.02-.37,1.47-1.8,1.91-3.32,2.37-.24.07-.48.15-.71.22-1.47.48-2.34.86-3.62,1.85l-.21.16.87,4.74.58-.86c.84-1.23,2.57-1.84,4.24-2.42,2.06-.72,4.18-1.46,4.71-3.43ZM27.21,158.33l.72,3.94c.54,2.92.71,5.2-2.3,5.76-2.35.43-3.64-.68-4.18-3.61l-.89-4.86,6.65-1.22Z"/>
      <path class="cls-1" d="M37.16,182.02c-2.24-5.8-8.17-8.16-14.42-5.74-2.82,1.09-5.08,2.96-6.37,5.26-1.46,2.62-1.6,5.67-.38,8.8,1.17,3.01,3.22,5.13,5.93,6.14,1.13.42,2.37.63,3.65.63,1.6,0,3.27-.32,4.92-.96,6.41-2.48,9.03-8.03,6.66-14.13ZM19.06,189.12c-1.81-4.67,1.52-7.88,5.24-9.32,1.27-.49,2.5-.74,3.66-.74.84,0,1.63.13,2.37.39,1.74.62,3.06,1.97,3.8,3.89.75,1.94.65,3.85-.31,5.51-.89,1.54-2.48,2.82-4.49,3.6-3.77,1.46-8.45,1.35-10.27-3.34Z"/>
      <polygon class="cls-1" points="54.71 212.79 47.29 218.32 41.2 210.15 48.62 204.62 46.42 201.68 28.57 214.98 30.77 217.92 38.5 212.16 44.59 220.33 36.86 226.09 39.09 229.09 56.94 215.78 54.71 212.79"/>
      <path class="cls-1" d="M66.75,240.26c4.62-5.09,4.48-11.22-.36-15.61-4.6-4.18-10.96-3.64-15.46,1.32-2.03,2.24-3.22,4.92-3.34,7.56-.14,3,1.11,5.78,3.59,8.04,2.1,1.91,4.49,2.89,6.99,2.89.35,0,.7-.02,1.06-.06,2.7-.3,5.37-1.77,7.52-4.14ZM58.93,240.73c-2.02.43-3.87-.12-5.54-1.64-3.71-3.37-2.16-7.72.52-10.67,1.58-1.74,3.39-2.78,5.23-3,.24-.03.49-.04.73-.04,1.58,0,3.09.62,4.41,1.82,3.46,3.14,2.38,7.43-.22,10.3-1.56,1.72-3.39,2.87-5.14,3.24Z"/>
      <path class="cls-1" d="M90.61,241.93l-13.9,10.98,2.82-17.5-3.73-2.19-11.29,19.19,3.17,1.86.21-.37c.06-.1,4.74-8.23,7.38-12.77l-2.76,16,2.39,1.4,12.62-9.97c-2.68,4.39-7.47,12.37-7.53,12.47l-.22.37,3.19,1.88,11.29-19.19-3.65-2.15Z"/>
      <rect class="cls-1" x="84.08" y="254.24" width="22.26" height="3.7" transform="translate(-177.86 247.28) rotate(-67.76)"/>
      <polygon class="cls-1" points="114.13 266.91 108.09 249.24 108.01 249.02 104.63 248.13 98.95 269.66 102.56 270.61 106.56 255.43 112.63 273.27 115.96 274.14 121.64 252.62 118.15 251.7 114.13 266.91"/>
      <path class="cls-1" d="M136.79,266.85c-.11,1.41-.29,3-1.03,4.17-.81,1.27-2.19,1.82-4.23,1.66-4.36-.34-4.5-3.12-4.25-6.44l.99-12.88-3.75-.29-.96,12.43c-.17,2.19-.38,4.91.76,6.93,1.27,2.24,3.71,3.52,7.27,3.79.33.02.65.04.96.04,3.28,0,5.74-1.37,6.97-3.92.67-1.35.86-3.19.98-4.8l1.01-13.16-3.75-.29-.98,12.76Z"/>
      <path class="cls-1" d="M161.59,252.5l-4.41,17.15-8.35-15.63-4.3.51,2.64,22.11,3.65-.44-.05-.43c-.01-.11-1.21-9.42-1.86-14.63l7.49,14.39,2.75-.33,4-15.58c.53,5.11,1.55,14.37,1.56,14.48l.05.43,3.68-.44-2.64-22.1-4.2.5Z"/>
      <path class="cls-1" d="M192.76,253.5c1.16-1.4,1.37-3.27.55-5.28-.88-2.18-2.37-3.35-4.41-3.49-1.7-.11-3.46.49-4.97,1.1l-7.51,3.04,8.36,20.64,6.97-2.82c2.52-1.02,8.43-3.41,5.96-9.52-.94-2.33-2.72-3.62-4.96-3.67ZM181.13,250.53l3.99-1.62c.88-.36,2.02-.76,2.96-.65.92.1,1.55.65,1.99,1.72.39.98.27,1.87-.36,2.66-.51.64-2.45,1.42-3.09,1.68l-3.4,1.38-2.09-5.17ZM190.18,263.69l-3.2,1.3-2.5-6.18,3.96-1.6c2.19-.89,4.62-1.59,5.78,1.26,1.15,2.85-1.48,4.2-4.03,5.23Z"/>
      <polygon class="cls-1" points="206.61 255.77 203.35 250.41 212.92 244.6 211.15 241.69 201.59 247.51 198.64 242.66 208.78 236.5 206.95 233.49 193.65 241.57 205.21 260.6 218.82 252.33 217.06 249.42 206.61 255.77"/>
      <polygon class="cls-1" points="219.39 222.94 229.74 234.78 211.5 229.83 208.86 232.14 223.51 248.9 226.32 246.45 215.99 234.63 234.16 239.59 236.75 237.33 222.1 220.56 219.39 222.94"/>
      <polygon class="cls-1" points="241.27 227.13 236.4 223.17 243.46 214.48 240.82 212.34 233.76 221.02 229.36 217.45 236.85 208.25 234.12 206.02 224.3 218.1 241.57 232.14 251.62 219.79 248.98 217.64 241.27 227.13"/>
      <polygon class="cls-1" points="253.25 198.23 250.34 196.53 245.35 205.06 240.45 202.2 245.92 192.85 242.9 191.09 235.56 203.66 254.78 214.9 256.66 211.68 248.26 206.76 253.25 198.23"/>
      <rect class="cls-1" x="253.03" y="179.85" width="3.7" height="22.27" transform="translate(-22.08 348.24) rotate(-66.43)"/>
      <path class="cls-1" d="M266.77,167.68l-.4-.2-1.44,3.36.31.19c2.62,1.64,3.7,4.26,2.9,7-1.32,4.51-5.72,4.96-9.39,3.88-1.84-.54-7.73-2.75-6.04-8.48.82-2.78,2.97-4.18,6.03-3.96l.38.03.71-3.65-.44-.06c-4.78-.7-8.5,1.82-9.95,6.74-.93,3.17-.57,6.07,1.04,8.41,1.47,2.12,3.94,3.75,7.15,4.69,1.54.45,3,.68,4.35.68,4.57,0,7.93-2.54,9.31-7.25,1.44-4.9-.29-9.26-4.51-11.38Z"/>
      <rect class="cls-1" x="261.72" y="150.15" width="3.7" height="22.27" transform="translate(62.88 396.24) rotate(-80.96)"/>
      <path class="cls-1" d="M264.89,134.26c-6.64,0-11.01,4.08-11.17,10.49-.08,3.17,1,5.89,3.13,7.85,1.99,1.84,4.83,2.9,7.98,2.98.12,0,.24,0,.36,0,5.54,0,11.1-3.18,11.28-10.4.08-3.23-1-5.97-3.12-7.94-1.99-1.84-4.85-2.9-8.05-2.98-.14,0-.27,0-.4,0ZM273.16,145.14c-.05,2.2-.91,3.9-2.55,5.06-1.47,1.04-3.54,1.58-5.86,1.53-2.35-.06-4.32-.75-5.69-1.99-1.37-1.25-2.07-2.99-2.02-5.05.05-2.08.88-3.8,2.4-4.97,1.35-1.04,3.21-1.6,5.25-1.6.09,0,.18,0,.27,0,4.05.1,8.32,2,8.2,7.03Z"/>
      <path class="cls-1" d="M124.52,215.9c-.28,1.42-1.24,2.11-2.94,2.11h-.14v1.46h2.7v8.35h1.9v-12.03h-1.5l-.02.11Z"/>
      <path class="cls-1" d="M136.91,216.52c-.78-.66-1.69-.99-2.78-.99-2.46,0-4.17,1.7-4.17,4.14s1.58,4.05,3.92,4.05c1.21,0,2.24-.46,2.94-1.32-.07,1.21-.49,3.89-2.75,3.89-1.17,0-1.9-.69-2.02-1.88v-.14s-1.89.14-1.89.14v.14c.21,2.07,1.61,3.36,3.67,3.36,1.8,0,4.82-.82,4.82-6.35,0-2.39-.57-4.05-1.73-5.06ZM134.08,222.03c-1.3,0-2.24-.97-2.24-2.31,0-1.53.88-2.51,2.24-2.51s2.36,1.05,2.36,2.49c0,1.37-.97,2.32-2.36,2.32Z"/>
      <path class="cls-1" d="M148.09,215.77h-1.47l-5.55,7.53v1.82h5.15v2.7h1.86v-2.7h1.77v-1.66h-1.77v-7.69ZM146.22,223.46h-3.19l3.28-4.7c-.03,1.31-.08,4.05-.09,4.7Z"/>
      <path class="cls-1" d="M156.94,219.74c-1.22,0-2.29.49-2.96,1.33.19-2.6,1.13-3.92,2.79-3.92,1.13,0,1.94.75,2,1.87v.14s1.85-.12,1.85-.12l-.02-.15c-.25-2.11-1.67-3.37-3.8-3.37-1.09,0-4.67.45-4.67,6.28,0,3.95,1.61,6.13,4.53,6.13,2.49,0,4.16-1.65,4.16-4.1s-1.63-4.09-3.88-4.09ZM156.7,226.27c-1.39,0-2.36-1.02-2.36-2.48,0-1.36,1-2.34,2.37-2.34s2.24.9,2.24,2.41c0,1.42-.93,2.41-2.26,2.41Z"/>
      <path class="cls-1" d="M15.87,123.59c0,1.88,1.52,3.4,3.4,3.4s3.4-1.52,3.4-3.4-1.52-3.4-3.4-3.4-3.4,1.52-3.4,3.4Z"/>
      <path class="cls-1" d="M266.46,123.59c0-1.88-1.52-3.4-3.4-3.4s-3.4,1.52-3.4,3.4,1.52,3.4,3.4,3.4,3.4-1.52,3.4-3.4Z"/>
    </g>
  </g>
</svg>